<mxfile host="app.diagrams.net" agent="Mozilla/5.0 (Macintosh; Intel Mac OS X 10_15_7) AppleWebKit/537.36 (KHTML, like Gecko) Chrome/126.0.0.0 Safari/537.36" version="24.8.3">
  <diagram name="Page-1" id="LuMb9QlDC8rWXjeZ2_R4">
    <mxGraphModel dx="1138" dy="974" grid="1" gridSize="10" guides="1" tooltips="1" connect="1" arrows="1" fold="1" page="1" pageScale="1" pageWidth="850" pageHeight="1100" math="0" shadow="0">
      <root>
        <mxCell id="0" />
        <mxCell id="1" parent="0" />
        <mxCell id="Aq8ec5txELI5ofOHZvyf-5" style="edgeStyle=orthogonalEdgeStyle;rounded=0;orthogonalLoop=1;jettySize=auto;html=1;exitX=0.5;exitY=1;exitDx=0;exitDy=0;exitPerimeter=0;entryX=0.5;entryY=0;entryDx=0;entryDy=0;" parent="1" source="Aq8ec5txELI5ofOHZvyf-1" target="Aq8ec5txELI5ofOHZvyf-2" edge="1">
          <mxGeometry relative="1" as="geometry" />
        </mxCell>
        <mxCell id="Aq8ec5txELI5ofOHZvyf-1" value="Start" style="strokeWidth=2;html=1;shape=mxgraph.flowchart.terminator;whiteSpace=wrap;" parent="1" vertex="1">
          <mxGeometry x="350" y="140" width="100" height="60" as="geometry" />
        </mxCell>
        <mxCell id="Aq8ec5txELI5ofOHZvyf-6" style="edgeStyle=orthogonalEdgeStyle;rounded=0;orthogonalLoop=1;jettySize=auto;html=1;exitX=0.5;exitY=1;exitDx=0;exitDy=0;entryX=0.5;entryY=0;entryDx=0;entryDy=0;" parent="1" source="Aq8ec5txELI5ofOHZvyf-2" target="Aq8ec5txELI5ofOHZvyf-3" edge="1">
          <mxGeometry relative="1" as="geometry" />
        </mxCell>
        <mxCell id="Aq8ec5txELI5ofOHZvyf-2" value="Input: # of views in last 30 days" style="shape=parallelogram;html=1;strokeWidth=2;perimeter=parallelogramPerimeter;whiteSpace=wrap;rounded=1;arcSize=12;size=0.23;" parent="1" vertex="1">
          <mxGeometry x="275" y="230" width="250" height="60" as="geometry" />
        </mxCell>
        <mxCell id="Aq8ec5txELI5ofOHZvyf-7" style="edgeStyle=orthogonalEdgeStyle;rounded=0;orthogonalLoop=1;jettySize=auto;html=1;exitX=0.5;exitY=1;exitDx=0;exitDy=0;" parent="1" source="Aq8ec5txELI5ofOHZvyf-3" target="Aq8ec5txELI5ofOHZvyf-4" edge="1">
          <mxGeometry relative="1" as="geometry" />
        </mxCell>
        <mxCell id="Aq8ec5txELI5ofOHZvyf-3" value="Input: Engagement Rate" style="shape=parallelogram;html=1;strokeWidth=2;perimeter=parallelogramPerimeter;whiteSpace=wrap;rounded=1;arcSize=12;size=0.23;" parent="1" vertex="1">
          <mxGeometry x="275" y="330" width="250" height="60" as="geometry" />
        </mxCell>
        <mxCell id="Aq8ec5txELI5ofOHZvyf-8" style="edgeStyle=orthogonalEdgeStyle;rounded=0;orthogonalLoop=1;jettySize=auto;html=1;entryX=0.5;entryY=0;entryDx=0;entryDy=0;" parent="1" source="Aq8ec5txELI5ofOHZvyf-4" target="Aq8ec5txELI5ofOHZvyf-11" edge="1">
          <mxGeometry relative="1" as="geometry">
            <mxPoint x="180" y="640" as="targetPoint" />
          </mxGeometry>
        </mxCell>
        <mxCell id="Aq8ec5txELI5ofOHZvyf-10" value="True" style="edgeLabel;html=1;align=center;verticalAlign=middle;resizable=0;points=[];" parent="Aq8ec5txELI5ofOHZvyf-8" vertex="1" connectable="0">
          <mxGeometry x="-0.3347" y="-2" relative="1" as="geometry">
            <mxPoint as="offset" />
          </mxGeometry>
        </mxCell>
        <mxCell id="Aq8ec5txELI5ofOHZvyf-12" style="edgeStyle=orthogonalEdgeStyle;rounded=0;orthogonalLoop=1;jettySize=auto;html=1;exitX=1;exitY=0.5;exitDx=0;exitDy=0;exitPerimeter=0;entryX=0.5;entryY=0;entryDx=0;entryDy=0;entryPerimeter=0;" parent="1" source="Aq8ec5txELI5ofOHZvyf-4" target="Aq8ec5txELI5ofOHZvyf-14" edge="1">
          <mxGeometry relative="1" as="geometry">
            <mxPoint x="700" y="640" as="targetPoint" />
          </mxGeometry>
        </mxCell>
        <mxCell id="Aq8ec5txELI5ofOHZvyf-13" value="False" style="edgeLabel;html=1;align=center;verticalAlign=middle;resizable=0;points=[];" parent="Aq8ec5txELI5ofOHZvyf-12" vertex="1" connectable="0">
          <mxGeometry x="-0.1467" relative="1" as="geometry">
            <mxPoint as="offset" />
          </mxGeometry>
        </mxCell>
        <mxCell id="Aq8ec5txELI5ofOHZvyf-4" value="If # of views &amp;lt; 1000" style="strokeWidth=2;html=1;shape=mxgraph.flowchart.decision;whiteSpace=wrap;" parent="1" vertex="1">
          <mxGeometry x="290" y="450" width="220" height="100" as="geometry" />
        </mxCell>
        <mxCell id="Aq8ec5txELI5ofOHZvyf-16" style="edgeStyle=orthogonalEdgeStyle;rounded=0;orthogonalLoop=1;jettySize=auto;html=1;exitX=0.5;exitY=1;exitDx=0;exitDy=0;" parent="1" source="Aq8ec5txELI5ofOHZvyf-11" target="Aq8ec5txELI5ofOHZvyf-15" edge="1">
          <mxGeometry relative="1" as="geometry" />
        </mxCell>
        <mxCell id="Aq8ec5txELI5ofOHZvyf-11" value="Print: Do not display any ads" style="rounded=1;whiteSpace=wrap;html=1;absoluteArcSize=1;arcSize=14;strokeWidth=2;shape=parallelogram;perimeter=parallelogramPerimeter;fixedSize=1;" parent="1" vertex="1">
          <mxGeometry x="80" y="560" width="190" height="100" as="geometry" />
        </mxCell>
        <mxCell id="Aq8ec5txELI5ofOHZvyf-18" style="edgeStyle=orthogonalEdgeStyle;rounded=0;orthogonalLoop=1;jettySize=auto;html=1;exitX=0;exitY=0.5;exitDx=0;exitDy=0;exitPerimeter=0;" parent="1" source="Aq8ec5txELI5ofOHZvyf-14" target="Aq8ec5txELI5ofOHZvyf-19" edge="1">
          <mxGeometry relative="1" as="geometry">
            <mxPoint x="430" y="690" as="targetPoint" />
          </mxGeometry>
        </mxCell>
        <mxCell id="Aq8ec5txELI5ofOHZvyf-20" value="True" style="edgeLabel;html=1;align=center;verticalAlign=middle;resizable=0;points=[];" parent="Aq8ec5txELI5ofOHZvyf-18" vertex="1" connectable="0">
          <mxGeometry x="-0.2903" y="1" relative="1" as="geometry">
            <mxPoint as="offset" />
          </mxGeometry>
        </mxCell>
        <mxCell id="Aq8ec5txELI5ofOHZvyf-14" value="If # of views &amp;gt;= 1000 AND # of views &amp;lt; 5000" style="strokeWidth=2;html=1;shape=mxgraph.flowchart.decision;whiteSpace=wrap;" parent="1" vertex="1">
          <mxGeometry x="500" y="560" width="280" height="100" as="geometry" />
        </mxCell>
        <mxCell id="Aq8ec5txELI5ofOHZvyf-15" value="End" style="strokeWidth=2;html=1;shape=mxgraph.flowchart.terminator;whiteSpace=wrap;" parent="1" vertex="1">
          <mxGeometry x="135" y="690" width="100" height="60" as="geometry" />
        </mxCell>
        <mxCell id="Aq8ec5txELI5ofOHZvyf-24" style="edgeStyle=orthogonalEdgeStyle;rounded=0;orthogonalLoop=1;jettySize=auto;html=1;exitX=0.5;exitY=1;exitDx=0;exitDy=0;entryX=0.5;entryY=0;entryDx=0;entryDy=0;" parent="1" source="Aq8ec5txELI5ofOHZvyf-19" target="Aq8ec5txELI5ofOHZvyf-23" edge="1">
          <mxGeometry relative="1" as="geometry" />
        </mxCell>
        <mxCell id="Aq8ec5txELI5ofOHZvyf-19" value="Print: Display only &quot;Skippable&quot; ads." style="rounded=1;whiteSpace=wrap;html=1;absoluteArcSize=1;arcSize=14;strokeWidth=2;shape=parallelogram;perimeter=parallelogramPerimeter;fixedSize=1;" parent="1" vertex="1">
          <mxGeometry x="310" y="700" width="210" height="100" as="geometry" />
        </mxCell>
        <mxCell id="Aq8ec5txELI5ofOHZvyf-21" style="edgeStyle=orthogonalEdgeStyle;rounded=0;orthogonalLoop=1;jettySize=auto;html=1;exitX=1;exitY=0.5;exitDx=0;exitDy=0;exitPerimeter=0;entryX=0.5;entryY=0;entryDx=0;entryDy=0;entryPerimeter=0;" parent="1" source="Aq8ec5txELI5ofOHZvyf-14" edge="1" target="nwXpdn_14Zjbyk3oZPFi-1">
          <mxGeometry relative="1" as="geometry">
            <mxPoint x="810" y="720" as="targetPoint" />
          </mxGeometry>
        </mxCell>
        <mxCell id="Aq8ec5txELI5ofOHZvyf-25" value="False" style="edgeLabel;html=1;align=center;verticalAlign=middle;resizable=0;points=[];" parent="Aq8ec5txELI5ofOHZvyf-21" vertex="1" connectable="0">
          <mxGeometry relative="1" as="geometry">
            <mxPoint as="offset" />
          </mxGeometry>
        </mxCell>
        <mxCell id="nwXpdn_14Zjbyk3oZPFi-15" style="edgeStyle=orthogonalEdgeStyle;rounded=0;orthogonalLoop=1;jettySize=auto;html=1;exitX=0.5;exitY=1;exitDx=0;exitDy=0;entryX=0.5;entryY=0;entryDx=0;entryDy=0;" edge="1" parent="1" source="Aq8ec5txELI5ofOHZvyf-23" target="nwXpdn_14Zjbyk3oZPFi-14">
          <mxGeometry relative="1" as="geometry" />
        </mxCell>
        <mxCell id="Aq8ec5txELI5ofOHZvyf-23" value="Calculate Skippable predicted revenue" style="rounded=1;whiteSpace=wrap;html=1;absoluteArcSize=1;arcSize=14;strokeWidth=2;" parent="1" vertex="1">
          <mxGeometry x="330" y="850" width="170" height="100" as="geometry" />
        </mxCell>
        <mxCell id="nwXpdn_14Zjbyk3oZPFi-23" style="edgeStyle=orthogonalEdgeStyle;rounded=0;orthogonalLoop=1;jettySize=auto;html=1;exitX=0.5;exitY=1;exitDx=0;exitDy=0;entryX=0.5;entryY=0;entryDx=0;entryDy=0;" edge="1" parent="1" source="Aq8ec5txELI5ofOHZvyf-26" target="nwXpdn_14Zjbyk3oZPFi-19">
          <mxGeometry relative="1" as="geometry" />
        </mxCell>
        <mxCell id="Aq8ec5txELI5ofOHZvyf-26" value="Print: Display both &quot;Skippable&quot; and &quot;Non-Skippable&quot; ads." style="rounded=1;whiteSpace=wrap;html=1;absoluteArcSize=1;arcSize=14;strokeWidth=2;shape=parallelogram;perimeter=parallelogramPerimeter;fixedSize=1;" parent="1" vertex="1">
          <mxGeometry x="580" y="900" width="220" height="100" as="geometry" />
        </mxCell>
        <mxCell id="nwXpdn_14Zjbyk3oZPFi-2" style="edgeStyle=orthogonalEdgeStyle;rounded=0;orthogonalLoop=1;jettySize=auto;html=1;exitX=0;exitY=0.5;exitDx=0;exitDy=0;exitPerimeter=0;" edge="1" parent="1" source="nwXpdn_14Zjbyk3oZPFi-1" target="Aq8ec5txELI5ofOHZvyf-26">
          <mxGeometry relative="1" as="geometry" />
        </mxCell>
        <mxCell id="nwXpdn_14Zjbyk3oZPFi-3" value="True" style="edgeLabel;html=1;align=center;verticalAlign=middle;resizable=0;points=[];" vertex="1" connectable="0" parent="nwXpdn_14Zjbyk3oZPFi-2">
          <mxGeometry x="-0.1226" y="-1" relative="1" as="geometry">
            <mxPoint as="offset" />
          </mxGeometry>
        </mxCell>
        <mxCell id="nwXpdn_14Zjbyk3oZPFi-6" style="edgeStyle=orthogonalEdgeStyle;rounded=0;orthogonalLoop=1;jettySize=auto;html=1;exitX=1;exitY=0.5;exitDx=0;exitDy=0;exitPerimeter=0;entryX=0.5;entryY=0;entryDx=0;entryDy=0;" edge="1" parent="1" source="nwXpdn_14Zjbyk3oZPFi-1" target="nwXpdn_14Zjbyk3oZPFi-8">
          <mxGeometry relative="1" as="geometry">
            <mxPoint x="1010" y="900" as="targetPoint" />
          </mxGeometry>
        </mxCell>
        <mxCell id="nwXpdn_14Zjbyk3oZPFi-7" value="False" style="edgeLabel;html=1;align=center;verticalAlign=middle;resizable=0;points=[];" vertex="1" connectable="0" parent="nwXpdn_14Zjbyk3oZPFi-6">
          <mxGeometry x="0.0658" relative="1" as="geometry">
            <mxPoint as="offset" />
          </mxGeometry>
        </mxCell>
        <mxCell id="nwXpdn_14Zjbyk3oZPFi-1" value="Engagement Rate &amp;gt; 2%" style="strokeWidth=2;html=1;shape=mxgraph.flowchart.decision;whiteSpace=wrap;" vertex="1" parent="1">
          <mxGeometry x="700" y="720" width="220" height="100" as="geometry" />
        </mxCell>
        <mxCell id="nwXpdn_14Zjbyk3oZPFi-8" value="Print: Pause monetization for that video." style="rounded=1;whiteSpace=wrap;html=1;absoluteArcSize=1;arcSize=14;strokeWidth=2;shape=parallelogram;perimeter=parallelogramPerimeter;fixedSize=1;" vertex="1" parent="1">
          <mxGeometry x="890" y="900" width="210" height="100" as="geometry" />
        </mxCell>
        <mxCell id="nwXpdn_14Zjbyk3oZPFi-12" value="End" style="strokeWidth=2;html=1;shape=mxgraph.flowchart.terminator;whiteSpace=wrap;" vertex="1" parent="1">
          <mxGeometry x="945" y="1040" width="100" height="60" as="geometry" />
        </mxCell>
        <mxCell id="nwXpdn_14Zjbyk3oZPFi-13" style="edgeStyle=orthogonalEdgeStyle;rounded=0;orthogonalLoop=1;jettySize=auto;html=1;exitX=0.5;exitY=1;exitDx=0;exitDy=0;entryX=0.5;entryY=0;entryDx=0;entryDy=0;entryPerimeter=0;" edge="1" parent="1" source="nwXpdn_14Zjbyk3oZPFi-8" target="nwXpdn_14Zjbyk3oZPFi-12">
          <mxGeometry relative="1" as="geometry" />
        </mxCell>
        <mxCell id="nwXpdn_14Zjbyk3oZPFi-14" value="Print: Display &quot;Skippable&quot; predicted revenue amount." style="rounded=1;whiteSpace=wrap;html=1;absoluteArcSize=1;arcSize=14;strokeWidth=2;shape=parallelogram;perimeter=parallelogramPerimeter;fixedSize=1;" vertex="1" parent="1">
          <mxGeometry x="280" y="990" width="270" height="100" as="geometry" />
        </mxCell>
        <mxCell id="nwXpdn_14Zjbyk3oZPFi-16" value="End" style="strokeWidth=2;html=1;shape=mxgraph.flowchart.terminator;whiteSpace=wrap;" vertex="1" parent="1">
          <mxGeometry x="365" y="1140" width="100" height="60" as="geometry" />
        </mxCell>
        <mxCell id="nwXpdn_14Zjbyk3oZPFi-17" style="edgeStyle=orthogonalEdgeStyle;rounded=0;orthogonalLoop=1;jettySize=auto;html=1;exitX=0.5;exitY=1;exitDx=0;exitDy=0;entryX=0.5;entryY=0;entryDx=0;entryDy=0;entryPerimeter=0;" edge="1" parent="1" source="nwXpdn_14Zjbyk3oZPFi-14" target="nwXpdn_14Zjbyk3oZPFi-16">
          <mxGeometry relative="1" as="geometry" />
        </mxCell>
        <mxCell id="nwXpdn_14Zjbyk3oZPFi-18" style="edgeStyle=orthogonalEdgeStyle;rounded=0;orthogonalLoop=1;jettySize=auto;html=1;exitX=0.5;exitY=1;exitDx=0;exitDy=0;entryX=0.5;entryY=0;entryDx=0;entryDy=0;" edge="1" parent="1" source="nwXpdn_14Zjbyk3oZPFi-19" target="nwXpdn_14Zjbyk3oZPFi-20">
          <mxGeometry relative="1" as="geometry" />
        </mxCell>
        <mxCell id="nwXpdn_14Zjbyk3oZPFi-19" value="Calculate Skippable &amp;amp; Non-Skippable predicted revenue and sum" style="rounded=1;whiteSpace=wrap;html=1;absoluteArcSize=1;arcSize=14;strokeWidth=2;" vertex="1" parent="1">
          <mxGeometry x="605" y="1060" width="170" height="100" as="geometry" />
        </mxCell>
        <mxCell id="nwXpdn_14Zjbyk3oZPFi-20" value="Print: Display &quot;Skippable&quot; &amp;amp; &quot;Non-Skippable&quot; predicted revenue amounts." style="rounded=1;whiteSpace=wrap;html=1;absoluteArcSize=1;arcSize=14;strokeWidth=2;shape=parallelogram;perimeter=parallelogramPerimeter;fixedSize=1;" vertex="1" parent="1">
          <mxGeometry x="555" y="1200" width="270" height="100" as="geometry" />
        </mxCell>
        <mxCell id="nwXpdn_14Zjbyk3oZPFi-21" value="End" style="strokeWidth=2;html=1;shape=mxgraph.flowchart.terminator;whiteSpace=wrap;" vertex="1" parent="1">
          <mxGeometry x="640" y="1350" width="100" height="60" as="geometry" />
        </mxCell>
        <mxCell id="nwXpdn_14Zjbyk3oZPFi-22" style="edgeStyle=orthogonalEdgeStyle;rounded=0;orthogonalLoop=1;jettySize=auto;html=1;exitX=0.5;exitY=1;exitDx=0;exitDy=0;entryX=0.5;entryY=0;entryDx=0;entryDy=0;entryPerimeter=0;" edge="1" parent="1" source="nwXpdn_14Zjbyk3oZPFi-20" target="nwXpdn_14Zjbyk3oZPFi-21">
          <mxGeometry relative="1" as="geometry" />
        </mxCell>
      </root>
    </mxGraphModel>
  </diagram>
</mxfile>
